<?xml version="1.0" ?><svg viewBox="0 0 64 64" xmlns="http://www.w3.org/2000/svg"><title>NATÚR BLOG ENGINE</title><defs><style>.cls-1{fill:#52ffaa;}.cls-2{fill:#17e198;}.cls-3{fill:#f3f9ff;}.cls-4{fill:#1b212d;}</style></defs><g id="Leaf"><path class="cls-1" d="M24.21,4a8.37,8.37,0,0,0-5.93,14.28L32,32,45.72,18.28A8.37,8.37,0,0,0,33.89,6.45L32,8.34,30.11,6.45A8.43,8.43,0,0,0,24.21,4Z" id="path5319-5"/><path class="cls-1" d="M24.21,60a8.37,8.37,0,0,1-5.93-14.28L32,32,45.72,45.72A8.37,8.37,0,0,1,33.89,57.55L32,55.66l-1.89,1.89A8.38,8.38,0,0,1,24.21,60Z" id="path5323-4"/><path class="cls-1" d="M60,24.21a8.37,8.37,0,0,0-14.28-5.93L32,32,45.72,45.72A8.37,8.37,0,0,0,57.55,33.89L55.66,32l1.89-1.89A8.41,8.41,0,0,0,60,24.21Z" id="path5333-7"/><path class="cls-1" d="M4,24.21a8.37,8.37,0,0,1,14.28-5.93L32,32,18.28,45.72A8.37,8.37,0,0,1,6.45,33.89L8.34,32,6.45,30.11A8.41,8.41,0,0,1,4,24.21Z" id="path5337-65"/><path class="cls-2" d="M12.36,15.83a8.49,8.49,0,0,0-2,.25,8.29,8.29,0,0,1,3.92,2.2L28,32,14.28,45.72a8.29,8.29,0,0,1-3.92,2.2,8.34,8.34,0,0,0,7.92-2.2L32,32,18.28,18.28A8.34,8.34,0,0,0,12.36,15.83Z" id="path8906"/><path class="cls-2" d="M39.81,4a8.36,8.36,0,0,0-2,.25,8.36,8.36,0,0,1,3.91,14L30,30l2,2L45.72,18.28A8.37,8.37,0,0,0,39.81,4ZM32,32l-2,2L41.72,45.72a8.36,8.36,0,0,1-3.91,14,8.36,8.36,0,0,0,7.91-14Z" id="path8916"/><path class="cls-2" d="M51.64,15.83a8.36,8.36,0,0,0-2,.25,8.3,8.3,0,0,1,3.91,2.2,8.37,8.37,0,0,1,0,11.83L51.66,32l1.89,1.89a8.36,8.36,0,0,1-3.91,14,8.36,8.36,0,0,0,7.91-14L55.66,32l1.89-1.89a8.37,8.37,0,0,0-5.91-14.28Z" id="path8921"/><path class="cls-3" d="M34,18a2,2,0,1,1-2-2A2,2,0,0,1,34,18Z" id="path5359-6"/><path class="cls-3" d="M34,46a2,2,0,1,1-2-2A2,2,0,0,1,34,46Z" id="circle5361-9"/><path class="cls-3" d="M46,34a2,2,0,1,1,2-2A2,2,0,0,1,46,34Z" id="circle5363-3"/><path class="cls-3" d="M18,34a2,2,0,1,1,2-2A2,2,0,0,1,18,34Z" id="circle5365-7"/><path class="cls-4" d="M58.26,17.57a9.38,9.38,0,0,0-9.58-2.25A9.35,9.35,0,0,0,39.81,3a9.28,9.28,0,0,0-6.62,2.74L32,6.93,30.81,5.74A9.32,9.32,0,0,0,24.21,3h0a9.34,9.34,0,0,0-8.88,12.31,9.46,9.46,0,0,0-3-.48,9.3,9.3,0,0,0-6.62,2.74A9.41,9.41,0,0,0,3,24.22H3a9.31,9.31,0,0,0,2.74,6.59L6.93,32,5.74,33.19a9.36,9.36,0,0,0,9.58,15.5A9.34,9.34,0,0,0,24.2,61h0a9.32,9.32,0,0,0,6.6-2.74L32,57.07l1.19,1.19a9.36,9.36,0,0,0,16-6.62,9.51,9.51,0,0,0-.48-3,9.25,9.25,0,0,0,2.94.49,9.36,9.36,0,0,0,6.63-16L57.07,32l1.19-1.19A9.31,9.31,0,0,0,61,24.22h0A9.41,9.41,0,0,0,58.26,17.57ZM19,7.16A7.42,7.42,0,0,1,24.2,5h0A7.34,7.34,0,0,1,29.4,7.16l1.89,1.89a1,1,0,0,0,1.42,0L34.6,7.16A7.36,7.36,0,0,1,45,17.57l-12,12V20.83a3,3,0,1,0-2,0v8.76l-12-12A7.37,7.37,0,0,1,19,7.16ZM32,19a1,1,0,1,1,1-1A1,1,0,0,1,32,19Zm1,27a1,1,0,1,1-1-1A1,1,0,0,1,33,46ZM12.36,47.17A7.28,7.28,0,0,1,7.16,45a7.37,7.37,0,0,1,0-10.41l1.89-1.89a1,1,0,0,0,0-1.42L7.16,29.4A7.29,7.29,0,0,1,5,24.21,7.36,7.36,0,0,1,17.57,19l12,12H20.83a3,3,0,1,0,0,2h8.76l-12,12A7.28,7.28,0,0,1,12.36,47.17ZM19,32a1,1,0,1,1-1-1A1,1,0,0,1,19,32ZM45,56.84a7.35,7.35,0,0,1-10.41,0L32.71,55a1,1,0,0,0-1.42,0L29.4,56.84A7.29,7.29,0,0,1,24.21,59h0A7.37,7.37,0,0,1,19,46.43l12-12v8.76a3,3,0,1,0,2,0V34.41l12,12a7.35,7.35,0,0,1,0,10.41ZM56.84,29.4,55,31.29a1,1,0,0,0-.29.71,1,1,0,0,0,.29.71l1.89,1.89A7.36,7.36,0,1,1,46.43,45l-12-12h8.76a3,3,0,1,0,0-2H34.41l12-12A7.36,7.36,0,1,1,56.84,29.4ZM45,32a1,1,0,1,1,1,1A1,1,0,0,1,45,32Z"/></g></svg>